<?xml version="1.0" encoding="UTF-8" standalone="no"?>
<svg
   xmlns:dc="http://purl.org/dc/elements/1.1/"
   xmlns:cc="http://creativecommons.org/ns#"
   xmlns:rdf="http://www.w3.org/1999/02/22-rdf-syntax-ns#"
   xmlns:svg="http://www.w3.org/2000/svg"
   xmlns="http://www.w3.org/2000/svg"
   xmlns:sodipodi="http://sodipodi.sourceforge.net/DTD/sodipodi-0.dtd"
   xmlns:inkscape="http://www.inkscape.org/namespaces/inkscape"
   viewBox="0 0 32 32"
   version="1.1"
   id="svg827"
   sodipodi:docname="github.svg"
   inkscape:version="0.92.3 (2405546, 2018-03-11)">
  <metadata
     id="metadata833">
    <rdf:RDF>
      <cc:Work
         rdf:about="">
        <dc:format>image/svg+xml</dc:format>
        <dc:type
           rdf:resource="http://purl.org/dc/dcmitype/StillImage" />
        <dc:title></dc:title>
      </cc:Work>
    </rdf:RDF>
  </metadata>
  <defs
     id="defs831" />
  <sodipodi:namedview
     pagecolor="#ffffff"
     bordercolor="#666666"
     borderopacity="1"
     objecttolerance="10"
     gridtolerance="10"
     guidetolerance="10"
     inkscape:pageopacity="0"
     inkscape:pageshadow="2"
     inkscape:window-width="1920"
     inkscape:window-height="1017"
     id="namedview829"
     showgrid="false"
     inkscape:zoom="12.78125"
     inkscape:cx="16.820231"
     inkscape:cy="8.7636827"
     inkscape:window-x="1912"
     inkscape:window-y="-8"
     inkscape:window-maximized="1"
     inkscape:current-layer="svg827"
     inkscape:pagecheckerboard="true" />
  <path
     style="fill:#ffffff;stroke-width:0.18348667"
     d="M 10.839018,26.05748 C 8.2386027,24.756545 6.0475664,21.996418 5.2585223,19.02753 c -0.3446962,-1.296968 -0.3446962,-4.207633 0,-5.5046 0.8226625,-3.095386 3.0203961,-5.793193 5.8009957,-7.120958 1.825265,-0.871583 2.9739,-1.135942 4.935639,-1.135942 3.08994,0 5.655112,1.050188 7.797059,3.192137 C 25.975802,10.641751 27,13.137628 27,16.27523 c 0,3.128712 -1.025312,5.634591 -3.191989,7.801268 -1.386485,1.386486 -3.54834,2.657472 -4.520168,2.657472 -0.644113,0 -0.735381,-0.368065 -0.688711,-2.77741 0.02698,-1.392792 -0.03156,-1.868669 -0.275685,-2.241257 -0.170465,-0.260162 -0.309937,-0.51037 -0.309937,-0.556015 0,-0.04565 0.415574,-0.17212 0.923496,-0.281051 1.164322,-0.249701 2.146967,-0.751573 2.782375,-1.421058 1.360607,-1.433572 1.616637,-4.569677 0.500981,-6.136471 -0.26345,-0.369983 -0.32054,-0.68759 -0.247668,-1.377833 0.05209,-0.493358 0.02092,-1.144722 -0.06925,-1.447475 -0.144257,-0.484322 -0.237045,-0.54438 -0.772268,-0.499858 -0.334572,0.02783 -0.991606,0.259217 -1.460077,0.51419 -0.804931,0.438099 -0.929406,0.45395 -2.263849,0.288278 -0.897492,-0.111424 -1.926684,-0.111424 -2.824174,0 -1.33445,0.165672 -1.458924,0.149821 -2.263856,-0.288278 -0.468471,-0.254973 -1.125506,-0.486359 -1.460077,-0.51419 -0.535222,-0.04452 -0.628011,0.01554 -0.772268,0.499858 -0.090176,0.302753 -0.1213398,0.954117 -0.06925,1.447475 0.07287,0.690243 0.01578,1.00785 -0.2476703,1.377833 -0.8019909,1.126292 -0.9231508,3.38895 -0.265863,4.964989 0.5477093,1.313293 2.0037703,2.341677 3.7846403,2.67301 0.762288,0.141824 0.796954,0.203026 0.40701,0.718578 -0.148167,0.195894 -0.269395,0.505528 -0.269395,0.688075 0,0.182547 -0.07339,0.331904 -0.1631,0.331904 -0.08971,0 -0.151631,0.135609 -0.137615,0.301353 0.01402,0.165743 -0.07773,0.337762 -0.203874,0.382263 -0.126147,0.0445 -0.229358,-0.04982 -0.229358,-0.20961 0,-0.159786 -0.121261,-0.29052 -0.26947,-0.29052 -0.164147,0 -0.228192,0.107577 -0.163856,0.275231 0.06856,0.178675 -0.0047,0.27523 -0.208877,0.27523 -0.204164,0 -0.277441,-0.09655 -0.208876,-0.27523 0.06548,-0.170629 -9.44e-4,-0.275231 -0.174685,-0.275231 -0.154165,0 -0.22927,0.08257 -0.166899,0.183487 0.06237,0.100918 -0.05661,0.183487 -0.264401,0.183487 -0.207791,0 -0.377803,-0.08257 -0.377803,-0.183487 0,-0.100918 0.103212,-0.184751 0.229359,-0.186296 0.155046,-0.0019 0.141752,-0.05821 -0.04103,-0.173802 -0.173905,-0.109977 -0.313902,-0.100586 -0.392332,0.02632 -0.19913,0.322199 -0.501705,-7.7e-5 -0.418942,-0.446222 0.04211,-0.226964 0.02747,-0.30945 -0.03252,-0.183303 C 10.00733,22.510449 9.7126617,22.346888 9.8266896,21.892568 9.9586036,21.366984 9.579133,20.984685 9.105809,21.166315 8.8488524,21.264915 8.801645,21.224865 8.8933075,20.985995 8.9881845,20.738747 8.8980275,20.67891 8.430589,20.67891 H 7.850031 l 0.6509703,0.596332 c 0.3580339,0.327982 0.8316295,0.950488 1.0524337,1.383348 0.541948,1.062417 1.31046,1.505016 2.614742,1.505881 1.155117,7.21e-4 1.258166,0.106022 1.258166,1.285092 0,0.387163 -0.05012,0.83454 -0.111374,0.994169 -0.180777,0.471099 -1.025667,0.339295 -2.475951,-0.386252 z M 9.20615,21.412857 c 0,-0.100918 0.077696,-0.183487 0.172659,-0.183487 0.094962,0 0.2236869,0.08257 0.2860576,0.183487 0.062371,0.100917 -0.015321,0.183487 -0.1726573,0.183487 -0.1573325,0 -0.2860593,-0.08257 -0.2860593,-0.183487 z"
     id="path1946"
     inkscape:connector-curvature="0" />
</svg>
